<svg width="24" height="24" viewBox="0 0 24 24" fill="none" xmlns="http://www.w3.org/2000/svg">
<g clip-path="url(#clip0_3004_1543)">
<path fill-rule="evenodd" clip-rule="evenodd" d="M11.67 21.36C11.5373 20.1133 11.3202 18.8772 11.02 17.66C11.0187 17.621 11.0096 17.5827 10.9932 17.5473C10.9768 17.5119 10.9534 17.4802 10.9245 17.4541C10.8956 17.4279 10.8616 17.4079 10.8248 17.3952C10.7879 17.3824 10.7489 17.3773 10.71 17.38C10.18 17.38 10.42 18.38 10.43 18.62C10.4115 19.5869 10.475 20.5537 10.62 21.51C10.98 23.38 11.01 23.61 11.11 23.71C11.21 23.81 11.44 23.97 11.64 23.79C11.7551 22.9847 11.7652 22.1679 11.67 21.36Z" fill="black"/>
<path fill-rule="evenodd" clip-rule="evenodd" d="M7.81019 14C7.89771 14 7.98164 13.9652 8.04353 13.9033C8.10542 13.8414 8.14019 13.7575 8.14019 13.67C8.14019 13.5824 8.10542 13.4985 8.04353 13.4366C7.98164 13.3747 7.89771 13.34 7.81019 13.34C6.61088 13.1464 5.3816 13.2776 4.25019 13.72C4.16286 13.7419 4.08518 13.792 4.02916 13.8625C3.97313 13.933 3.94186 14.0199 3.94019 14.11C4.29019 15 7.73019 14.06 7.81019 14Z" fill="black"/>
<path fill-rule="evenodd" clip-rule="evenodd" d="M6.58007 6.09999C6.58007 6.63999 6.85007 6.62999 7.24007 6.09999C7.17657 5.23782 7.17657 4.37216 7.24007 3.50999C7.24007 2.96999 7.32007 1.50999 7.32007 1.36999C7.78007 0.959991 9.63007 1.12999 10.6801 1.14999C10.7601 1.47999 10.6801 0.899991 10.7401 3.24999C10.7284 3.35634 10.7284 3.46364 10.7401 3.56999C10.1701 3.70999 8.74007 3.56999 8.17007 3.65999C8.12739 3.66853 8.08681 3.68539 8.05064 3.7096C8.01448 3.73382 7.98344 3.76493 7.9593 3.80114C7.93515 3.83736 7.91838 3.87797 7.90993 3.92067C7.90149 3.96337 7.90153 4.00731 7.91007 4.04999C7.9186 4.09267 7.93546 4.13325 7.95968 4.16941C7.9839 4.20558 8.015 4.23662 8.05122 4.26076C8.08743 4.28491 8.12805 4.30168 8.17075 4.31013C8.21344 4.31857 8.25739 4.31853 8.30007 4.30999C9.06007 4.17999 10.4601 4.64999 11.3001 4.30999C11.6601 4.13999 11.6701 3.65999 11.6801 3.30999C11.7992 2.38466 11.816 1.449 11.7301 0.519991C11.6605 0.385141 11.5561 0.271366 11.4278 0.190476C11.2994 0.109587 11.1517 0.0645327 11.0001 0.0599907C9.92825 -0.0206479 8.85189 -0.0206479 7.78007 0.0599907C5.92007 0.389991 6.38007 1.43999 6.37007 1.81999C6.3165 3.25004 6.38676 4.68205 6.58007 6.09999Z" fill="black"/>
<path fill-rule="evenodd" clip-rule="evenodd" d="M21.7301 11.08C21.2201 8.77998 21.0201 7.39998 18.9201 6.84998C17.4501 6.45998 8.18008 5.40998 3.92008 7.67998C3.48719 7.93023 3.10857 8.26432 2.80636 8.66268C2.50416 9.06104 2.28444 9.51567 2.16008 9.99998C1.84292 11.0916 1.68463 12.2232 1.69008 13.36C1.72682 14.6146 1.8303 15.8664 2.00008 17.11C2.00976 17.1606 2.03276 17.2077 2.0667 17.2465C2.10065 17.2853 2.14431 17.3143 2.1932 17.3306C2.24209 17.3469 2.29444 17.3499 2.34487 17.3392C2.39529 17.3286 2.44196 17.3047 2.48008 17.27C2.75008 17.07 1.76008 11.47 3.56008 9.32998C4.15503 8.61183 4.99329 8.13754 5.91528 7.9974C6.83728 7.85726 7.77861 8.06105 8.56008 8.56998C10.2201 9.56998 10.4701 12.16 10.6301 14.12C10.7401 15.51 10.8601 16.24 9.72008 16.43C9.64008 16.43 4.72008 16.88 4.04008 16.74C3.71008 16.67 3.53008 16.31 3.25008 16.59C3.21894 16.6207 3.19421 16.6573 3.17733 16.6976C3.16045 16.738 3.15176 16.7812 3.15176 16.825C3.15176 16.8687 3.16045 16.912 3.17733 16.9523C3.19421 16.9927 3.21894 17.0293 3.25008 17.06C3.46496 17.2302 3.71256 17.3545 3.97748 17.425C4.2424 17.4955 4.51899 17.5108 4.79008 17.47C6.09008 17.47 9.79008 17.32 9.85008 17.31C11.7001 17.08 11.7301 15.72 11.6401 14.05C11.4801 11.05 11.1201 8.36998 8.41008 7.23998H8.73008C14.9901 7.47998 15.3701 6.92998 18.6401 7.88998C20.0501 8.29998 20.1301 8.88998 20.6401 11.32C20.9701 12.74 21.9301 15.76 20.4301 16.21C19.3301 16.54 12.3001 16.63 12.0401 16.64C11.9526 16.64 11.8686 16.6747 11.8067 16.7366C11.7448 16.7985 11.7101 16.8825 11.7101 16.97C11.7101 17.0575 11.7448 17.1414 11.8067 17.2033C11.8686 17.2652 11.9526 17.3 12.0401 17.3H14.5301C14.1384 19.2136 14.0173 21.1727 14.1701 23.12C14.1701 23.5 14.1701 24.01 14.5501 23.96C14.6196 23.9668 14.6892 23.9483 14.7462 23.9079C14.8031 23.8674 14.8436 23.8078 14.8601 23.74C14.9201 23.61 15.2301 21.02 15.2601 20.47C15.2956 19.9306 15.2956 19.3894 15.2601 18.85C15.2227 18.334 15.2227 17.816 15.2601 17.3C16.3401 17.3 17.4701 17.3 18.9601 17.24C20.1001 17.18 21.3301 17.32 21.9601 16.24C22.7401 14.74 22.0801 12.69 21.7301 11.08Z" fill="black"/>
</g>
<defs>
<clipPath id="clip0_3004_1543">
<rect width="24" height="24" fill="white"/>
</clipPath>
</defs>
</svg>
